<svg width="16" height="16" viewBox="0 0 16 16" fill="none" xmlns="http://www.w3.org/2000/svg">
<path d="M1.38667 11.5867C1.45432 11.7496 1.58377 11.879 1.74667 11.9467C1.82681 11.9808 1.91288 11.9989 2 12H5.33333C5.51014 12 5.67971 11.9298 5.80474 11.8047C5.92976 11.6797 6 11.5101 6 11.3333C6 11.1565 5.92976 10.987 5.80474 10.8619C5.67971 10.7369 5.51014 10.6667 5.33333 10.6667H3.60667L7.33333 6.94L9.52667 9.14C9.58864 9.20249 9.66238 9.25208 9.74362 9.28593C9.82485 9.31977 9.91199 9.3372 10 9.3372C10.088 9.3372 10.1751 9.31977 10.2564 9.28593C10.3376 9.25208 10.4114 9.20249 10.4733 9.14L14.4733 5.14C14.5358 5.07802 14.5854 5.00429 14.6193 4.92305C14.6531 4.84181 14.6705 4.75467 14.6705 4.66667C14.6705 4.57866 14.6531 4.49152 14.6193 4.41028C14.5854 4.32904 14.5358 4.25531 14.4733 4.19333C14.4114 4.13085 14.3376 4.08125 14.2564 4.04741C14.1751 4.01356 14.088 3.99613 14 3.99613C13.912 3.99613 13.8249 4.01356 13.7436 4.04741C13.6624 4.08125 13.5886 4.13085 13.5267 4.19333L10 7.72667L7.80667 5.52667C7.74469 5.46418 7.67096 5.41459 7.58972 5.38074C7.50848 5.34689 7.42134 5.32947 7.33333 5.32947C7.24533 5.32947 7.15819 5.34689 7.07695 5.38074C6.99571 5.41459 6.92198 5.46418 6.86 5.52667L2.66667 9.72667V8C2.66667 7.82319 2.59643 7.65362 2.47141 7.5286C2.34638 7.40357 2.17681 7.33333 2 7.33333C1.82319 7.33333 1.65362 7.40357 1.52859 7.5286C1.40357 7.65362 1.33333 7.82319 1.33333 8V11.3333C1.33439 11.4205 1.35251 11.5065 1.38667 11.5867Z" fill="#359766"/>
</svg>
